<svg width="163" height="40" viewBox="0 0 163 40" fill="none" xmlns="http://www.w3.org/2000/svg">
<path d="M17.5 33C24.9558 33 31 26.9558 31 19.5C31 12.0442 24.9558 6 17.5 6C10.0442 6 4 12.0442 4 19.5C4 26.9558 10.0442 33 17.5 33Z" fill="url(#paint0_linear_6_2)"/>
<path d="M10.4277 15.1351C14.6066 14.0893 18.7757 13.046 22.955 12C23.1743 12.848 23.3914 13.6879 23.6109 14.5371C20.3477 15.3537 17.0898 16.1692 13.832 16.9846C13.8327 16.9898 13.8333 16.9949 13.8341 17.0001H23.9219C23.9236 17.037 23.9265 17.0668 23.9265 17.0969C23.9267 19.2878 23.9278 21.4789 23.9261 23.6698C23.9251 24.8933 22.9163 25.9325 21.6785 25.9896C21.558 25.9952 21.4372 25.9986 21.3165 25.9986C18.6823 25.9992 16.0481 25.9995 13.4141 25.9986C12.7557 25.9984 12.1805 25.7789 11.7105 25.3255C11.2827 24.9126 11.0405 24.4063 11.0034 23.8126C10.996 23.6941 10.9937 23.5752 10.9937 23.4565C10.9931 21.5189 10.9922 19.5814 10.995 17.644C10.9954 17.4423 10.9729 17.2479 10.9204 17.0522C10.7558 16.4395 10.6012 15.8244 10.4429 15.21C10.4376 15.1894 10.4344 15.1682 10.4277 15.1351ZM11.604 19.6276V19.7292C11.604 21.0375 11.6038 22.3459 11.6048 23.6541C11.6048 23.7256 11.6111 23.7977 11.6219 23.8685C11.7607 24.7735 12.4995 25.3983 13.4296 25.3983C16.0954 25.3983 18.7613 25.3983 21.4272 25.398C21.5002 25.398 21.5733 25.3946 21.646 25.3893C22.5974 25.3211 23.3158 24.5605 23.3158 23.621C23.3158 22.3282 23.3158 21.0357 23.3158 19.7429V19.6276H11.604ZM13.4696 17.6036C13.4897 17.6357 13.5015 17.6568 13.5153 17.6763C13.8152 18.1019 14.1162 18.5267 14.4138 18.9539C14.4486 19.0038 14.4827 19.0237 14.5444 19.0232C14.9035 19.0203 15.2626 19.0218 15.6216 19.0215C15.6487 19.0215 15.6759 19.0177 15.7064 19.0153C15.6997 18.998 15.6982 18.9882 15.693 18.9809C15.3815 18.5369 15.0705 18.0923 14.7557 17.6504C14.737 17.6241 14.6885 17.6062 14.6534 17.6053C14.4596 17.601 14.2657 17.6032 14.0719 17.6032C13.8761 17.6032 13.6802 17.6036 13.4696 17.6036ZM18.6023 19.0218C18.5804 18.9858 18.5687 18.9638 18.5546 18.9437C18.2543 18.5175 17.9527 18.0923 17.6543 17.6648C17.6209 17.6171 17.5864 17.6021 17.5299 17.6023C17.1672 17.6046 16.8044 17.6034 16.4417 17.6036C16.4181 17.6036 16.3944 17.6059 16.3593 17.6077C16.3763 17.634 16.3856 17.6494 16.3957 17.6639C16.6716 18.0572 16.9556 18.4452 17.2195 18.8462C17.314 18.9897 17.4172 19.032 17.5829 19.0256C17.916 19.0126 18.2501 19.0218 18.6023 19.0218ZM19.2434 17.6036C19.2642 17.6367 19.2758 17.6575 19.2894 17.6771C19.5897 18.103 19.8913 18.5281 20.1891 18.9555C20.2244 19.0064 20.2605 19.0235 20.3208 19.023C20.677 19.0205 21.0332 19.0218 21.3894 19.0215C21.4171 19.0215 21.4446 19.0181 21.4805 19.0158C21.47 18.9946 21.465 18.9803 21.4568 18.9685C21.1485 18.529 20.8406 18.0893 20.5293 17.6519C20.5105 17.6256 20.4632 17.6062 20.4288 17.6055C20.2223 17.6012 20.0154 17.6034 19.8086 17.6034C19.6254 17.6034 19.4421 17.6036 19.2434 17.6036ZM21.0955 14.5442C21.0748 14.5228 21.067 14.513 21.0577 14.505C20.6467 14.1524 20.236 13.7993 19.8231 13.4488C19.8023 13.4312 19.7596 13.4237 19.7319 13.4304C19.3625 13.52 18.9939 13.6132 18.625 13.7056C18.6115 13.709 18.5991 13.7159 18.5643 13.7298C18.5939 13.749 18.6111 13.7576 18.6252 13.7696C18.9773 14.07 19.3363 14.3632 19.6773 14.6753C19.8191 14.8051 19.9432 14.8502 20.1343 14.7906C20.4447 14.6937 20.765 14.6272 21.0955 14.5442ZM15.4977 15.9453C15.4827 15.9258 15.4769 15.9147 15.4682 15.907C15.0638 15.562 14.6582 15.2185 14.2563 14.8708C14.2063 14.8276 14.1674 14.8209 14.1055 14.837C13.8052 14.9153 13.5034 14.9878 13.2024 15.0628C13.1329 15.0801 13.064 15.099 12.9764 15.1221C13.0752 15.2072 13.1604 15.2803 13.2453 15.3533C13.5723 15.6341 13.8986 15.9157 14.2277 16.194C14.2563 16.2183 14.3081 16.2395 14.3415 16.2316C14.7233 16.1407 15.1037 16.044 15.4977 15.9453ZM15.7852 14.4169C15.7957 14.4366 15.7973 14.4435 15.8017 14.4471C16.2146 14.8019 16.6269 15.1573 17.0427 15.5089C17.0694 15.5314 17.1259 15.5365 17.1631 15.5276C17.5113 15.4442 17.8582 15.3562 18.2054 15.269C18.2341 15.2619 18.2618 15.2517 18.302 15.2393C17.891 14.8874 17.4896 14.5485 17.0952 14.2022C17.0121 14.1293 16.9392 14.1147 16.8401 14.1511C16.7724 14.1761 16.6993 14.187 16.6286 14.2048C16.3499 14.2749 16.0712 14.3447 15.7852 14.4169ZM11.6086 19.0162H12.8141C12.8133 19.0048 12.815 18.9974 12.8122 18.9933C12.4953 18.5418 12.1784 18.0903 11.8598 17.6397C11.8476 17.6224 11.8214 17.6068 11.8006 17.6053C11.7384 17.6008 11.6756 17.6036 11.6088 17.6036L11.6086 19.0162ZM11.5223 16.9402C11.9194 16.8407 12.3071 16.7436 12.72 16.6401C12.6845 16.6142 12.6658 16.6025 12.6492 16.5883C12.2685 16.2639 11.888 15.9393 11.5078 15.6146C11.3808 15.5062 11.3352 15.5015 11.1718 15.5868C11.2879 16.0348 11.4041 16.4838 11.5223 16.9402ZM22.128 17.607C22.4396 18.0493 22.7456 18.4745 23.0396 18.9076C23.1129 19.0156 23.1915 19.0427 23.3097 19.011V17.6068L22.128 17.607ZM22.5117 12.7325C22.1294 12.8287 21.7579 12.922 21.3862 13.0154L21.3774 13.042C21.3938 13.052 21.4118 13.0601 21.4261 13.0723C21.8043 13.3944 22.1859 13.7125 22.5572 14.042C22.6553 14.1289 22.7391 14.1609 22.8624 14.0891C22.7465 13.6408 22.6299 13.1893 22.5117 12.7325Z" fill="white"/>
<path d="M16.3944 20.7749C16.4145 20.7843 16.4433 20.7954 16.47 20.8104C17.2727 21.2657 18.0753 21.7213 18.8778 22.1768C19.0235 22.2594 19.1691 22.3422 19.3146 22.4253C19.4245 22.4882 19.425 22.5721 19.3137 22.6354C18.4978 23.0995 17.6814 23.5629 16.8654 24.0264C16.7334 24.1014 16.6019 24.1769 16.4692 24.2507C16.3555 24.314 16.282 24.2745 16.282 24.1481C16.2814 23.0682 16.282 21.9882 16.2812 20.9082C16.2812 20.8372 16.302 20.786 16.3944 20.7749Z" fill="white"/>
<path d="M48.534 16.9268H44.6775C44.6261 16.5309 44.5206 16.1735 44.3612 15.8547C44.2018 15.5359 43.991 15.2634 43.7288 15.0371C43.4665 14.8109 43.1554 14.6386 42.7955 14.5204C42.4407 14.397 42.0473 14.3353 41.6154 14.3353C40.8493 14.3353 40.1885 14.5229 39.6332 14.8983C39.083 15.2737 38.6588 15.8162 38.3605 16.5257C38.0674 17.2353 37.9209 18.0941 37.9209 19.1019C37.9209 20.1509 38.07 21.0301 38.3682 21.7397C38.6716 22.4442 39.0958 22.9764 39.6409 23.3363C40.1911 23.6911 40.8415 23.8685 41.5923 23.8685C42.0139 23.8685 42.397 23.8145 42.7415 23.7065C43.0912 23.5986 43.3971 23.4417 43.6594 23.2361C43.9267 23.0252 44.1453 22.7707 44.315 22.4725C44.4898 22.1691 44.6106 21.8271 44.6775 21.4466L48.534 21.4698C48.4671 22.1691 48.264 22.8581 47.9247 23.5369C47.5904 24.2156 47.1302 24.8352 46.544 25.3957C45.9578 25.951 45.2431 26.3932 44.3998 26.7223C43.5617 27.0514 42.6001 27.216 41.5152 27.216C40.0857 27.216 38.8053 26.9023 37.6741 26.275C36.548 25.6425 35.6584 24.7221 35.0054 23.5137C34.3523 22.3054 34.0258 20.8347 34.0258 19.1019C34.0258 17.3639 34.3575 15.8907 35.0208 14.6823C35.6841 13.474 36.5814 12.5561 37.7126 11.9288C38.8439 11.3015 40.1114 10.9878 41.5152 10.9878C42.4716 10.9878 43.356 11.1215 44.1684 11.3889C44.9809 11.6511 45.6956 12.0368 46.3126 12.5458C46.9297 13.0498 47.431 13.6694 47.8167 14.4047C48.2023 15.14 48.4414 15.9807 48.534 16.9268ZM50.7187 27V15.1528H54.4903V27H50.7187ZM52.6084 13.7722C52.0787 13.7722 51.6237 13.5974 51.2432 13.2477C50.8627 12.8929 50.6724 12.4661 50.6724 11.9674C50.6724 11.4737 50.8627 11.0521 51.2432 10.7024C51.6237 10.3476 52.0787 10.1702 52.6084 10.1702C53.1431 10.1702 53.5982 10.3476 53.9736 10.7024C54.3541 11.0521 54.5443 11.4737 54.5443 11.9674C54.5443 12.4661 54.3541 12.8929 53.9736 13.2477C53.5982 13.5974 53.1431 13.7722 52.6084 13.7722ZM60.6627 20.2434V27H56.891V15.1528H60.4776V17.3279H60.6087C60.8709 16.6029 61.3183 16.0347 61.9507 15.6233C62.5832 15.2068 63.3365 14.9986 64.2106 14.9986C65.0437 14.9986 65.7661 15.1863 66.378 15.5616C66.995 15.9318 67.4732 16.4512 67.8126 17.1196C68.1571 17.783 68.3268 18.5594 68.3217 19.449V27H64.55V20.1894C64.5552 19.5312 64.388 19.017 64.0487 18.6468C63.7144 18.2766 63.2491 18.0915 62.6526 18.0915C62.2567 18.0915 61.907 18.1789 61.6037 18.3537C61.3054 18.5234 61.074 18.7677 60.9095 19.0865C60.7501 19.4053 60.6678 19.7909 60.6627 20.2434ZM76.1947 27.2237C74.9555 27.2237 73.886 26.9794 72.9861 26.4909C72.0914 25.9973 71.4024 25.2954 70.919 24.3853C70.4408 23.47 70.2017 22.3825 70.2017 21.1227C70.2017 19.8989 70.4434 18.8294 70.9267 17.9141C71.4101 16.9937 72.0914 16.2789 72.9707 15.7699C73.85 15.2557 74.8861 14.9986 76.079 14.9986C76.9223 14.9986 77.6936 15.1297 78.3929 15.3919C79.0922 15.6542 79.6964 16.0424 80.2055 16.5566C80.7145 17.0708 81.1105 17.7058 81.3933 18.4617C81.6761 19.2124 81.8175 20.0737 81.8175 21.0456V21.9866H71.5206V19.7961H78.3081C78.3029 19.395 78.2078 19.0376 78.0227 18.724C77.8376 18.4103 77.5831 18.166 77.2591 17.9912C76.9403 17.8112 76.5727 17.7213 76.1562 17.7213C75.7345 17.7213 75.3566 17.8164 75.0223 18.0066C74.6881 18.1918 74.4233 18.4463 74.2279 18.7702C74.0325 19.089 73.9297 19.4515 73.9194 19.8578V22.0868C73.9194 22.5702 74.0145 22.9944 74.2048 23.3595C74.395 23.7194 74.665 23.9996 75.0146 24.2002C75.3643 24.4007 75.7808 24.501 76.2641 24.501C76.5984 24.501 76.9017 24.4547 77.1743 24.3622C77.4468 24.2696 77.6808 24.1333 77.8762 23.9534C78.0715 23.7734 78.2181 23.5523 78.3158 23.29L81.7789 23.3903C81.635 24.1668 81.3187 24.8429 80.8302 25.4188C80.3469 25.9896 79.7118 26.4344 78.9251 26.7532C78.1384 27.0668 77.2283 27.2237 76.1947 27.2237ZM92.2821 15.9396C92.2307 15.3739 92.0019 14.9343 91.5956 14.6206C91.1946 14.3018 90.6212 14.1424 89.8757 14.1424C89.382 14.1424 88.9707 14.2067 88.6416 14.3353C88.3125 14.4638 88.0657 14.6412 87.9011 14.8675C87.7366 15.0886 87.6517 15.3431 87.6466 15.631C87.6363 15.8676 87.6826 16.0758 87.7854 16.2558C87.8934 16.4358 88.0477 16.5952 88.2482 16.734C88.4539 16.8677 88.7007 16.986 88.9887 17.0888C89.2766 17.1916 89.6006 17.2816 89.9605 17.3588L91.318 17.6673C92.0996 17.837 92.7886 18.0632 93.3851 18.346C93.9867 18.6288 94.4906 18.9656 94.8968 19.3564C95.3082 19.7472 95.6193 20.1971 95.8301 20.7062C96.0409 21.2153 96.1489 21.786 96.154 22.4185C96.1489 23.416 95.8969 24.2722 95.3982 24.9869C94.8994 25.7016 94.1821 26.2493 93.2462 26.6298C92.3155 27.0103 91.192 27.2005 89.8757 27.2005C88.5542 27.2005 87.4023 27.0026 86.4202 26.6066C85.4381 26.2107 84.6745 25.6091 84.1295 24.8018C83.5844 23.9945 83.3042 22.9738 83.2887 21.7397H86.9447C86.9756 22.2488 87.1118 22.673 87.3535 23.0124C87.5952 23.3518 87.9268 23.6089 88.3485 23.7837C88.7753 23.9585 89.2689 24.0459 89.8294 24.0459C90.3436 24.0459 90.7806 23.9765 91.1406 23.8377C91.5057 23.6988 91.7859 23.506 91.9813 23.2592C92.1767 23.0124 92.277 22.7296 92.2821 22.4108C92.277 22.1125 92.1844 21.858 92.0044 21.6472C91.8245 21.4312 91.5468 21.2461 91.1714 21.0918C90.8012 20.9324 90.3281 20.7859 89.7522 20.6522L88.1017 20.2666C86.7339 19.9529 85.6566 19.4464 84.8699 18.7471C84.0832 18.0426 83.6924 17.0914 83.6975 15.8933C83.6924 14.9163 83.9546 14.0602 84.4843 13.3249C85.0139 12.5895 85.7466 12.0162 86.6825 11.6049C87.6183 11.1935 88.6853 10.9878 89.8834 10.9878C91.1072 10.9878 92.169 11.1961 93.0688 11.6126C93.9738 12.0239 94.6757 12.6024 95.1745 13.348C95.6733 14.0936 95.9278 14.9574 95.9381 15.9396H92.2821ZM104.769 15.1528V17.9295H97.2956V15.1528H104.769ZM98.8613 12.3145H102.633V23.2746C102.633 23.506 102.669 23.6937 102.741 23.8377C102.818 23.9765 102.929 24.0768 103.073 24.1385C103.217 24.195 103.389 24.2233 103.589 24.2233C103.733 24.2233 103.885 24.2105 104.044 24.1848C104.209 24.1539 104.332 24.1282 104.415 24.1076L104.985 26.8303C104.805 26.8817 104.551 26.946 104.222 27.0231C103.898 27.1003 103.51 27.1491 103.057 27.1697C102.173 27.2108 101.414 27.108 100.782 26.8612C100.155 26.6092 99.6737 26.2184 99.3395 25.6888C99.0104 25.1592 98.851 24.4933 98.8613 23.6911V12.3145ZM106.694 27V15.1528H110.358V17.3125H110.481C110.697 16.5309 111.049 15.9498 111.538 15.5693C112.026 15.1837 112.594 14.9909 113.242 14.9909C113.417 14.9909 113.597 15.0037 113.782 15.0294C113.967 15.05 114.139 15.0834 114.299 15.1297V18.4077C114.119 18.346 113.882 18.2972 113.589 18.2612C113.301 18.2252 113.044 18.2072 112.818 18.2072C112.371 18.2072 111.967 18.3075 111.607 18.508C111.252 18.7034 110.972 18.9785 110.766 19.3333C110.566 19.6829 110.466 20.0943 110.466 20.5674V27H106.694ZM120.758 27.2237C119.519 27.2237 118.45 26.9794 117.55 26.4909C116.655 25.9973 115.966 25.2954 115.483 24.3853C115.005 23.47 114.765 22.3825 114.765 21.1227C114.765 19.8989 115.007 18.8294 115.491 17.9141C115.974 16.9937 116.655 16.2789 117.534 15.7699C118.414 15.2557 119.45 14.9986 120.643 14.9986C121.486 14.9986 122.257 15.1297 122.957 15.3919C123.656 15.6542 124.26 16.0424 124.769 16.5566C125.278 17.0708 125.674 17.7058 125.957 18.4617C126.24 19.2124 126.381 20.0737 126.381 21.0456V21.9866H116.084V19.7961H122.872C122.867 19.395 122.772 19.0376 122.586 18.724C122.401 18.4103 122.147 18.166 121.823 17.9912C121.504 17.8112 121.136 17.7213 120.72 17.7213C120.298 17.7213 119.92 17.8164 119.586 18.0066C119.252 18.1918 118.987 18.4463 118.792 18.7702C118.596 19.089 118.493 19.4515 118.483 19.8578V22.0868C118.483 22.5702 118.578 22.9944 118.769 23.3595C118.959 23.7194 119.229 23.9996 119.578 24.2002C119.928 24.4007 120.345 24.501 120.828 24.501C121.162 24.501 121.466 24.4547 121.738 24.3622C122.011 24.2696 122.245 24.1333 122.44 23.9534C122.635 23.7734 122.782 23.5523 122.88 23.29L126.343 23.3903C126.199 24.1668 125.882 24.8429 125.394 25.4188C124.911 25.9896 124.276 26.4344 123.489 26.7532C122.702 27.0668 121.792 27.2237 120.758 27.2237ZM131.647 27.2005C130.891 27.2005 130.22 27.0746 129.634 26.8226C129.053 26.5655 128.593 26.1799 128.254 25.6657C127.919 25.1463 127.752 24.4958 127.752 23.7143C127.752 23.0561 127.868 22.5008 128.099 22.0483C128.331 21.5958 128.65 21.2281 129.056 20.9453C129.462 20.6625 129.93 20.4491 130.46 20.3051C130.989 20.156 131.555 20.0557 132.156 20.0043C132.83 19.9426 133.372 19.8783 133.784 19.8115C134.195 19.7395 134.493 19.6392 134.679 19.5107C134.869 19.377 134.964 19.1893 134.964 18.9476V18.9091C134.964 18.5131 134.828 18.2072 134.555 17.9912C134.283 17.7753 133.915 17.6673 133.452 17.6673C132.953 17.6673 132.552 17.7753 132.249 17.9912C131.946 18.2072 131.753 18.5054 131.67 18.8859L128.192 18.7625C128.295 18.0426 128.56 17.3999 128.986 16.8343C129.418 16.2635 130.01 15.8162 130.76 15.4922C131.516 15.1631 132.424 14.9986 133.483 14.9986C134.239 14.9986 134.936 15.0886 135.573 15.2685C136.211 15.4434 136.766 15.7005 137.239 16.0398C137.712 16.3741 138.077 16.7854 138.334 17.2739C138.597 17.7624 138.728 18.3203 138.728 18.9476V27H135.18V25.3494H135.087C134.876 25.7505 134.607 26.0899 134.277 26.3675C133.954 26.6452 133.57 26.8535 133.128 26.9923C132.691 27.1311 132.198 27.2005 131.647 27.2005ZM132.812 24.7324C133.218 24.7324 133.583 24.6501 133.907 24.4856C134.236 24.321 134.499 24.0948 134.694 23.8068C134.889 23.5137 134.987 23.1744 134.987 22.7887V21.6626C134.879 21.7192 134.748 21.7706 134.594 21.8169C134.445 21.8631 134.28 21.9069 134.1 21.948C133.92 21.9891 133.735 22.0251 133.545 22.056C133.354 22.0868 133.172 22.1151 132.997 22.1408C132.642 22.1974 132.339 22.2848 132.087 22.4031C131.84 22.5213 131.65 22.6756 131.516 22.8658C131.388 23.0509 131.323 23.2721 131.323 23.5292C131.323 23.9199 131.462 24.2182 131.74 24.4239C132.023 24.6295 132.38 24.7324 132.812 24.7324ZM141.034 27V15.1528H144.621V17.3279H144.752C144.999 16.608 145.415 16.0398 146.001 15.6233C146.587 15.2068 147.287 14.9986 148.099 14.9986C148.922 14.9986 149.626 15.2094 150.213 15.631C150.799 16.0527 151.171 16.6183 151.331 17.3279H151.454C151.675 16.6234 152.107 16.0604 152.75 15.6388C153.393 15.212 154.151 14.9986 155.025 14.9986C156.146 14.9986 157.057 15.3585 157.756 16.0784C158.455 16.7931 158.805 17.7753 158.805 19.0248V27H155.033V19.8886C155.033 19.2973 154.881 18.8474 154.578 18.5388C154.275 18.2252 153.881 18.0683 153.398 18.0683C152.879 18.0683 152.47 18.238 152.172 18.5774C151.879 18.9116 151.732 19.3616 151.732 19.9272V27H148.107V19.8501C148.107 19.2999 147.958 18.8654 147.66 18.5466C147.361 18.2277 146.968 18.0683 146.479 18.0683C146.15 18.0683 145.86 18.148 145.608 18.3075C145.356 18.4617 145.158 18.6828 145.014 18.9708C144.875 19.2587 144.806 19.5981 144.806 19.9889V27H141.034Z" fill="#1DC157"/>
<defs>
<linearGradient id="paint0_linear_6_2" x1="4.66832" y1="24.1098" x2="34.1078" y2="13.9886" gradientUnits="userSpaceOnUse">
<stop stop-color="#1DC157"/>
<stop offset="1" stop-color="#1DC157"/>
</linearGradient>
</defs>
</svg>
